Coordinates
version=1
nRows=27
nColumns=12
inDegrees=yes

Units are S.I. units (second, meters, Newtons, ...)
Angles are in degrees

endheader
time	SC_y	SC_z	SC_x	AC_y	AC_z	AC_x	GH_y	GH_z	GH_yy	EL_x	PS_y
       0.0              -58.87          33.64          79.78          62.23         -6.446           11.3         -167.7          80.26          119.7          67.15          100.4
   0.01653              -58.87          33.64          79.77          62.22         -6.448           11.3         -167.7          80.25          119.7          67.14          100.4
   0.03305              -58.86          33.63          79.77          62.22          -6.45          11.29         -167.7          80.25          119.7          67.13          100.4
   0.04958              -58.86          33.63          79.76          62.22         -6.452          11.29         -167.7          80.24          119.7          67.13          100.4
   0.06611              -58.85          33.63          79.76          62.21         -6.455          11.28         -167.7          80.23          119.7          67.12          100.4
   0.08264              -58.84          33.63          79.75           62.2         -6.457          11.28         -167.6          80.22          119.7          67.11          100.4
   0.09916              -58.83          33.62          79.75           62.2          -6.46          11.27         -167.6          80.21          119.7           67.1          100.4
    0.1157              -58.83          33.62          79.74          62.19         -6.463          11.27         -167.6          80.21          119.7          67.09          100.4
    0.1322              -58.82          33.62          79.74          62.19         -6.466          11.26         -167.6          80.19          119.7          67.08          100.4
    0.1487              -58.81          33.61          79.73          62.18         -6.469          11.26         -167.6          80.18          119.8          67.06          100.4
    0.1653               -58.8          33.61          79.72          62.17         -6.473          11.25         -167.6          80.17          119.8          67.05          100.4
    0.1818              -58.79           33.6          79.71          62.16         -6.476          11.24         -167.5          80.16          119.8          67.04          100.4
    0.1983              -58.77           33.6           79.7          62.16          -6.48          11.24         -167.5          80.15          119.8          67.02          100.4
    0.2149              -58.76          33.59           79.7          62.15         -6.485          11.23         -167.5          80.13          119.8          67.01          100.4
    0.2314              -58.75          33.59          79.68          62.14          -6.49          11.22         -167.5          80.12          119.8          66.99          100.5
    0.2479              -58.73          33.58          79.67          62.12         -6.495          11.21         -167.5           80.1          119.8          66.97          100.5
    0.2644              -58.71          33.57          79.66          62.11         -6.501           11.2         -167.4          80.08          119.8          66.95          100.5
     0.281               -58.7          33.57          79.65           62.1         -6.507          11.19         -167.4          80.06          119.8          66.93          100.5
    0.2975              -58.68          33.56          79.63          62.08         -6.513          11.17         -167.4          80.04          119.8           66.9          100.5
     0.314              -58.65          33.55          79.62          62.07         -6.521          11.16         -167.3          80.01          119.8          66.87          100.5
    0.3305              -58.63          33.54           79.6          62.05         -6.529          11.15         -167.3          79.99          119.9          66.84          100.5
    0.3471              -58.61          33.53          79.58          62.03         -6.538          11.13         -167.3          79.96          119.9          66.81          100.5
    0.3636              -58.58          33.52          79.56          62.01         -6.548          11.11         -167.2          79.92          119.9          66.78          100.5
    0.3801              -58.54           33.5          79.54          61.99         -6.558          11.09         -167.2          79.89          119.9          66.74          100.6
    0.3967              -58.51          33.49          79.51          61.96          -6.57          11.07         -167.1          79.85          119.9          66.69          100.6
    0.4132              -58.47          33.47          79.48          61.93         -6.584          11.04         -167.0           79.8          120.0          66.64          100.6
    0.4297              -58.42          33.45          79.45           61.9         -6.599          11.01         -167.0          79.75          120.0          66.58          100.6
